<svg width="112" height="112" viewBox="0 0 112 112" fill="none" xmlns="http://www.w3.org/2000/svg">
<rect width="112" height="112" rx="20" fill="#D1E2FF"/>
<path d="M86.1757 39.7556L66.4484 19.8325C66.1865 19.5683 65.8756 19.3588 65.5335 19.2159C65.1914 19.0731 64.8247 18.9997 64.4545 19H30.6364C29.1415 19 27.7079 19.5997 26.6509 20.6672C25.5938 21.7348 25 23.1826 25 24.6923V87.3077C25 88.8174 25.5938 90.2652 26.6509 91.3328C27.7079 92.4003 29.1415 93 30.6364 93H81.3636C82.8585 93 84.2921 92.4003 85.3491 91.3328C86.4062 90.2652 87 88.8174 87 87.3077V41.7692C87.0003 41.3954 86.9276 41.0251 86.7862 40.6796C86.6448 40.3341 86.4373 40.0201 86.1757 39.7556ZM67.2727 28.7161L77.3794 38.9231H67.2727V28.7161ZM81.3636 87.3077H30.6364V24.6923H61.6364V41.7692C61.6364 42.5241 61.9333 43.248 62.4618 43.7818C62.9903 44.3155 63.7071 44.6154 64.4545 44.6154H81.3636V87.3077ZM67.2727 64.5385C67.2727 65.2933 66.9758 66.0172 66.4473 66.551C65.9188 67.0848 65.202 67.3846 64.4545 67.3846H47.5455C46.798 67.3846 46.0812 67.0848 45.5527 66.551C45.0242 66.0172 44.7273 65.2933 44.7273 64.5385C44.7273 63.7836 45.0242 63.0597 45.5527 62.5259C46.0812 61.9922 46.798 61.6923 47.5455 61.6923H64.4545C65.202 61.6923 65.9188 61.9922 66.4473 62.5259C66.9758 63.0597 67.2727 63.7836 67.2727 64.5385Z" fill="#1D346A"/>
</svg>
