<svg width="56" height="56" viewBox="0 0 56 56" fill="none" xmlns="http://www.w3.org/2000/svg">
<rect width="56" height="56" rx="28" fill="#D6F3E9"/>
<path d="M33.7075 24.2925C33.8005 24.3854 33.8742 24.4957 33.9246 24.6171C33.9749 24.7385 34.0008 24.8686 34.0008 25C34.0008 25.1314 33.9749 25.2615 33.9246 25.3829C33.8742 25.5043 33.8005 25.6146 33.7075 25.7075L26.7075 32.7075C26.6146 32.8005 26.5043 32.8742 26.3829 32.9246C26.2615 32.9749 26.1314 33.0008 26 33.0008C25.8686 33.0008 25.7385 32.9749 25.6171 32.9246C25.4957 32.8742 25.3854 32.8005 25.2925 32.7075L22.2925 29.7075C22.1049 29.5199 21.9994 29.2654 21.9994 29C21.9994 28.7346 22.1049 28.4801 22.2925 28.2925C22.4801 28.1049 22.7346 27.9994 23 27.9994C23.2654 27.9994 23.5199 28.1049 23.7075 28.2925L26 30.5863L32.2925 24.2925C32.3854 24.1995 32.4957 24.1258 32.6171 24.0754C32.7385 24.0251 32.8686 23.9992 33 23.9992C33.1314 23.9992 33.2615 24.0251 33.3829 24.0754C33.5043 24.1258 33.6146 24.1995 33.7075 24.2925ZM41 28C41 30.5712 40.2376 33.0846 38.8091 35.2224C37.3807 37.3603 35.3503 39.0265 32.9749 40.0104C30.5995 40.9944 27.9856 41.2518 25.4638 40.7502C22.9421 40.2486 20.6257 39.0105 18.8076 37.1924C16.9895 35.3743 15.7514 33.0579 15.2498 30.5362C14.7482 28.0144 15.0056 25.4006 15.9896 23.0251C16.9735 20.6497 18.6398 18.6194 20.7776 17.1909C22.9154 15.7624 25.4288 15 28 15C31.4467 15.0036 34.7512 16.3744 37.1884 18.8116C39.6256 21.2488 40.9964 24.5533 41 28ZM39 28C39 25.8244 38.3549 23.6977 37.1462 21.8887C35.9375 20.0798 34.2195 18.6699 32.2095 17.8373C30.1995 17.0048 27.9878 16.7869 25.854 17.2114C23.7202 17.6358 21.7602 18.6834 20.2218 20.2218C18.6835 21.7602 17.6358 23.7202 17.2114 25.854C16.7869 27.9878 17.0048 30.1995 17.8373 32.2095C18.6699 34.2195 20.0798 35.9375 21.8887 37.1462C23.6977 38.3549 25.8244 39 28 39C30.9164 38.9967 33.7123 37.8367 35.7745 35.7745C37.8367 33.7123 38.9967 30.9164 39 28Z" fill="#039855"/>
</svg>
