<svg width="32" height="32" viewBox="0 0 32 32" fill="none" xmlns="http://www.w3.org/2000/svg">
<path d="M29.6004 23.5112L18.6691 4.52746C18.396 4.06237 18.006 3.67673 17.5379 3.40879C17.0698 3.14084 16.5397 2.99988 16.0004 2.99988C15.461 2.99988 14.931 3.14084 14.4629 3.40879C13.9947 3.67673 13.6048 4.06237 13.3316 4.52746L2.40036 23.5112C2.13753 23.9611 1.99902 24.4727 1.99902 24.9937C1.99902 25.5147 2.13753 26.0264 2.40036 26.4762C2.67003 26.9441 3.05933 27.3318 3.52832 27.5996C3.9973 27.8674 4.52909 28.0056 5.06911 28H26.9316C27.4712 28.0051 28.0025 27.8667 28.471 27.599C28.9395 27.3312 29.3284 26.9437 29.5979 26.4762C29.8611 26.0266 30 25.5151 30.0005 24.994C30.0009 24.473 29.8628 23.9613 29.6004 23.5112ZM27.8666 25.475C27.7713 25.6375 27.6345 25.7718 27.4702 25.8641C27.3059 25.9563 27.12 26.0032 26.9316 26H5.06911C4.88071 26.0032 4.69483 25.9563 4.53053 25.8641C4.36622 25.7718 4.22941 25.6375 4.13411 25.475C4.04779 25.3288 4.00226 25.1622 4.00226 24.9925C4.00226 24.8227 4.04779 24.6561 4.13411 24.51L15.0654 5.52621C15.1626 5.36443 15.3 5.23055 15.4643 5.13761C15.6286 5.04467 15.8141 4.99583 16.0029 4.99583C16.1916 4.99583 16.3771 5.04467 16.5414 5.13761C16.7057 5.23055 16.8431 5.36443 16.9404 5.52621L27.8716 24.51C27.9572 24.6566 28.0018 24.8234 28.001 24.9931C28.0001 25.1629 27.9537 25.3293 27.8666 25.475ZM15.0004 18V13C15.0004 12.7347 15.1057 12.4804 15.2933 12.2929C15.4808 12.1053 15.7351 12 16.0004 12C16.2656 12 16.5199 12.1053 16.7075 12.2929C16.895 12.4804 17.0004 12.7347 17.0004 13V18C17.0004 18.2652 16.895 18.5195 16.7075 18.7071C16.5199 18.8946 16.2656 19 16.0004 19C15.7351 19 15.4808 18.8946 15.2933 18.7071C15.1057 18.5195 15.0004 18.2652 15.0004 18ZM17.5004 22.5C17.5004 22.7966 17.4124 23.0866 17.2476 23.3333C17.0827 23.58 16.8485 23.7722 16.5744 23.8858C16.3003 23.9993 15.9987 24.029 15.7077 23.9711C15.4168 23.9133 15.1495 23.7704 14.9397 23.5606C14.7299 23.3508 14.5871 23.0836 14.5292 22.7926C14.4713 22.5016 14.501 22.2 14.6145 21.9259C14.7281 21.6518 14.9203 21.4176 15.167 21.2528C15.4137 21.0879 15.7037 21 16.0004 21C16.3982 21 16.7797 21.158 17.061 21.4393C17.3423 21.7206 17.5004 22.1021 17.5004 22.5Z" fill="#DC6803"/>
</svg>
