<svg width="56" height="56" viewBox="0 0 56 56" fill="none" xmlns="http://www.w3.org/2000/svg">
<rect width="56" height="56" rx="28" fill="#FCF0DB"/>
<path d="M41.6004 35.5112L30.6691 16.5275C30.396 16.0624 30.006 15.6767 29.5379 15.4088C29.0698 15.1408 28.5397 14.9999 28.0004 14.9999C27.461 14.9999 26.931 15.1408 26.4629 15.4088C25.9947 15.6767 25.6048 16.0624 25.3316 16.5275L14.4004 35.5112C14.1375 35.9611 13.999 36.4727 13.999 36.9937C13.999 37.5147 14.1375 38.0264 14.4004 38.4762C14.67 38.9441 15.0593 39.3318 15.5283 39.5996C15.9973 39.8674 16.5291 40.0056 17.0691 40H38.9316C39.4712 40.0051 40.0025 39.8667 40.471 39.599C40.9395 39.3312 41.3284 38.9437 41.5979 38.4762C41.8611 38.0266 42 37.5151 42.0005 36.994C42.0009 36.473 41.8628 35.9613 41.6004 35.5112ZM39.8666 37.475C39.7713 37.6375 39.6345 37.7718 39.4702 37.8641C39.3059 37.9563 39.12 38.0032 38.9316 38H17.0691C16.8807 38.0032 16.6948 37.9563 16.5305 37.8641C16.3662 37.7718 16.2294 37.6375 16.1341 37.475C16.0478 37.3288 16.0023 37.1622 16.0023 36.9925C16.0023 36.8227 16.0478 36.6561 16.1341 36.51L27.0654 17.5262C27.1626 17.3644 27.3 17.2306 27.4643 17.1376C27.6286 17.0447 27.8141 16.9958 28.0029 16.9958C28.1916 16.9958 28.3771 17.0447 28.5414 17.1376C28.7057 17.2306 28.8431 17.3644 28.9404 17.5262L39.8716 36.51C39.9572 36.6566 40.0018 36.8234 40.001 36.9931C40.0001 37.1629 39.9537 37.3293 39.8666 37.475ZM27.0004 30V25C27.0004 24.7347 27.1057 24.4804 27.2933 24.2929C27.4808 24.1053 27.7351 24 28.0004 24C28.2656 24 28.5199 24.1053 28.7075 24.2929C28.895 24.4804 29.0004 24.7347 29.0004 25V30C29.0004 30.2652 28.895 30.5195 28.7075 30.7071C28.5199 30.8946 28.2656 31 28.0004 31C27.7351 31 27.4808 30.8946 27.2933 30.7071C27.1057 30.5195 27.0004 30.2652 27.0004 30ZM29.5004 34.5C29.5004 34.7966 29.4124 35.0866 29.2476 35.3333C29.0827 35.58 28.8485 35.7722 28.5744 35.8858C28.3003 35.9993 27.9987 36.029 27.7077 35.9711C27.4168 35.9133 27.1495 35.7704 26.9397 35.5606C26.7299 35.3508 26.5871 35.0836 26.5292 34.7926C26.4713 34.5016 26.501 34.2 26.6145 33.9259C26.7281 33.6518 26.9203 33.4176 27.167 33.2528C27.4137 33.0879 27.7037 33 28.0004 33C28.3982 33 28.7797 33.158 29.061 33.4393C29.3423 33.7206 29.5004 34.1021 29.5004 34.5Z" fill="#DC6803"/>
</svg>
