<svg width="215" height="45" viewBox="0 0 215 45" fill="none" xmlns="http://www.w3.org/2000/svg">
<path d="M19.0789 22.892V1.628H25.8949V22.892C25.8949 30.62 21.1429 34.604 12.7909 34.604C5.06294 34.604 0.214939 30.956 0.214939 23.276V1.628H6.98294V22.652C6.98294 26.588 9.09494 29.084 12.6949 29.084C16.9669 29.084 19.0789 27.068 19.0789 22.892ZM33.0813 16.5547C33.0813 15.5391 33.3313 14.7422 33.8313 14.1641C34.3469 13.5859 35.0734 13.2969 36.0109 13.2969C36.9797 13.2969 37.7219 13.5938 38.2375 14.1875C38.7688 14.7656 39.0344 15.5547 39.0344 16.5547C39.0344 17.5547 38.7688 18.3516 38.2375 18.9453C37.7063 19.5234 36.9641 19.8125 36.0109 19.8125C35.0891 19.8125 34.3703 19.5234 33.8547 18.9453C33.3391 18.3672 33.0813 17.5703 33.0813 16.5547ZM70.4146 11.036H64.0786C63.7426 7.772 61.7746 6.188 57.7426 6.188C53.9986 6.188 52.0306 7.532 52.0306 9.932C52.0306 11.948 53.4226 13.1 56.9746 13.964C60.5746 14.828 64.0786 15.692 66.4306 16.748C69.2146 17.996 71.4226 19.964 71.4226 24.476C71.4226 31.484 66.1426 34.604 58.7026 34.604C50.8306 34.604 45.3586 31.1 45.2146 23.948H51.6466C51.7426 27.212 54.4786 29.228 58.7506 29.228C62.6866 29.228 64.9426 27.548 64.9426 24.716C64.9426 22.844 63.9826 21.548 59.9986 20.684C56.0626 19.82 53.5186 19.244 51.2626 18.236C47.8546 16.7 45.9346 14.396 45.9346 10.364C45.9346 4.652 49.8226 0.571998 57.5986 0.571998C65.6626 0.571998 70.1746 4.94 70.4146 11.036ZM89.0134 24.092V17.948H94.8214V24.668C94.8214 29.66 91.9414 34.124 85.2694 34.124C78.3574 34.124 75.6214 29.708 75.6214 24.62V3.5H81.7654V9.884H94.8214V14.3H81.7654V23.996C81.7654 26.972 82.8214 28.7 85.3654 28.7C87.8614 28.7 89.0134 27.02 89.0134 24.092ZM106.155 33.5H99.9154V9.884H106.155V33.5ZM106.155 7.052H99.9154V1.244H106.155V7.052ZM122.542 28.796C126.19 28.796 127.918 26.348 127.918 21.5C127.918 17.276 125.71 14.348 122.59 14.348C119.614 14.348 117.31 17.132 117.31 21.116C117.31 26.252 119.086 28.796 122.542 28.796ZM117.55 44.684H111.406V9.884H117.406L117.454 12.764C118.942 10.364 121.15 9.26 124.03 9.26C129.982 9.26 134.254 13.964 134.254 21.932C134.254 29.084 130.654 34.124 124.558 34.124C121.63 34.124 119.326 32.924 117.55 30.428V44.684ZM144.835 19.388H154.483C154.387 15.884 152.083 14.204 149.635 14.204C147.139 14.204 145.075 16.124 144.835 19.388ZM160.915 23.324H144.643C144.835 26.876 146.851 29.18 149.923 29.18C151.939 29.18 153.715 28.172 154.147 26.54H160.579C159.139 31.388 155.251 34.124 150.211 34.124C142.339 34.124 138.403 29.804 138.403 21.26C138.403 13.964 142.579 9.26 149.827 9.26C157.075 9.26 160.915 13.964 160.915 23.324ZM186.879 33.5H180.591V19.196C180.591 15.548 179.535 14.54 176.559 14.54C173.295 14.54 171.711 16.364 171.711 19.964V33.5H165.471V9.884H171.423V13.34C172.863 10.7 175.263 9.26 179.055 9.26C183.567 9.26 186.879 11.996 186.879 17.132V33.5ZM203.196 29.036C206.172 29.036 208.476 26.252 208.476 22.268C208.476 17.132 206.7 14.588 203.244 14.588C199.596 14.588 197.868 17.036 197.868 21.884C197.868 26.108 200.076 29.036 203.196 29.036ZM214.38 33.5H208.38L208.332 30.62C206.844 33.02 204.636 34.124 201.756 34.124C195.804 34.124 191.532 29.42 191.532 21.452C191.532 14.3 195.132 9.26 201.228 9.26C204.156 9.26 206.46 10.46 208.236 12.956V1.244H214.38V33.5Z" fill="#FF6600"/>
</svg>
