<svg width="279" height="68" viewBox="0 0 279 68" fill="none" xmlns="http://www.w3.org/2000/svg">
<path d="M55.9262 39.2402V28.5739C59.5795 27.8577 62.336 24.6392 62.336 20.7762C62.336 16.3875 58.7776 12.8298 54.3891 12.8298C52.2084 12.8298 50.2322 13.7084 48.7969 15.1312L38.7811 8.89168C38.8176 8.5809 38.8367 8.26602 38.8367 7.94591C38.8367 3.55742 35.279 -0.000258834 30.8905 -0.000258834C26.5018 -0.000258834 22.9443 3.55742 22.9443 7.94591C22.9443 12.3344 26.5018 15.8921 30.8905 15.8921C33.843 15.8921 36.4199 14.2813 37.7894 11.8909L47.0715 17.6739C46.6674 18.6267 46.4429 19.6754 46.4429 20.7762C46.4429 24.6392 49.1996 27.8577 52.8523 28.5739V39.2402C49.1996 39.9555 46.4429 43.1749 46.4429 47.0379C46.4429 51.4266 50.0013 54.9834 54.3891 54.9834C58.7776 54.9834 62.336 51.4266 62.336 47.0379C62.336 43.1749 59.5795 39.9555 55.9262 39.2402Z" fill="#EF3A20"/>
<path d="M38.8363 33.9074C38.8363 29.5189 35.2786 25.9612 30.8901 25.9612C26.5023 25.9612 22.9439 29.5189 22.9439 33.9074C22.9439 37.7697 25.7004 40.9854 29.353 41.7017V52.2568C27.3946 52.6404 25.694 53.744 24.5379 55.2801L15.6057 49.7157C15.9054 48.879 16.0684 47.9778 16.0684 47.038C16.0684 43.1756 13.3124 39.9563 9.65909 39.2402V28.574C13.3124 27.8584 16.0684 24.6393 16.0684 20.777C16.0684 16.3876 12.5115 12.8306 8.12298 12.8306C3.7337 12.8306 0.176758 16.3876 0.176758 20.777C0.176758 24.6393 2.93263 27.8584 6.58597 28.574V39.2402C2.93263 39.9563 0.176758 43.1756 0.176758 47.038C0.176758 51.4264 3.7337 54.9841 8.12298 54.9841C10.4681 54.9841 12.5766 53.9682 14.0308 52.3517L23.196 58.0617C23.0316 58.6982 22.9439 59.3662 22.9439 60.0538C22.9439 64.4423 26.5023 68 30.8901 68C35.2786 68 38.8363 64.4423 38.8363 60.0538C38.8363 56.1915 36.0802 52.9722 32.4269 52.2568V41.7017C36.0795 40.9854 38.8363 37.7697 38.8363 33.9074Z" fill="#EF3A20"/>
<path d="M203.538 13.3703C204.068 13.3703 204.536 13.4939 204.953 13.74C205.367 13.987 205.693 14.3021 205.929 14.6947L205.098 15.3347C204.706 14.74 204.191 14.4367 203.549 14.4367C203.236 14.4367 202.965 14.5148 202.754 14.6726C202.54 14.829 202.427 15.0542 202.427 15.3458C202.427 15.6038 202.507 15.7937 202.664 15.9296C202.82 16.0641 203.088 16.2329 203.462 16.4011L204.289 16.7825C204.884 17.0529 205.334 17.3665 205.627 17.6916C205.918 18.0176 206.063 18.4211 206.063 18.9033C206.063 19.5435 205.827 20.061 205.356 20.4526C204.884 20.8458 204.289 21.0366 203.571 21.0366C202.965 21.0366 202.417 20.8918 201.934 20.6106C201.452 20.3292 201.07 19.9374 200.788 19.431L201.63 18.7922C202.181 19.5779 202.83 19.9704 203.584 19.9704C203.966 19.9704 204.279 19.8811 204.514 19.6904C204.749 19.4982 204.873 19.2519 204.873 18.9377C204.873 18.6804 204.797 18.4773 204.626 18.3318C204.459 18.185 204.179 18.0176 203.785 17.8384L202.965 17.4557C202.417 17.1984 201.989 16.9279 201.687 16.6028C201.383 16.2782 201.238 15.8734 201.238 15.3911C201.238 14.7962 201.462 14.3138 201.912 13.9433C202.359 13.572 202.911 13.3812 203.571 13.3812L203.538 13.3703Z" fill="#211C1D"/>
<path d="M210.964 20.9243H209.774V13.5152H210.964V20.9243Z" fill="#211C1D"/>
<path d="M217.369 19.8704C217.786 19.8704 218.113 19.7688 218.334 19.5671C218.559 19.3647 218.671 19.0833 218.671 18.7363C218.671 18.3884 218.559 18.107 218.334 17.8944C218.113 17.681 217.797 17.5793 217.381 17.5793H216.368V19.8813H217.381L217.369 19.8704ZM216.368 14.5603V16.5577H216.785C217.159 16.5577 217.438 16.4691 217.641 16.2895C217.841 16.1096 217.942 15.8635 217.942 15.56C217.942 15.2567 217.841 15.009 217.641 14.8294C217.438 14.6495 217.159 14.5603 216.785 14.5603H216.368ZM218.493 16.8844C218.929 17.0297 219.278 17.2651 219.524 17.5902C219.771 17.9169 219.895 18.3088 219.895 18.7691C219.895 19.3984 219.673 19.9143 219.234 20.3185C218.795 20.7233 218.211 20.9243 217.492 20.9243H215.211V13.5159H216.911C217.572 13.5159 218.113 13.6951 218.515 14.0671C218.918 14.4369 219.121 14.9088 219.121 15.4915C219.121 16.0643 218.907 16.5247 218.493 16.8719V16.8844Z" fill="#211C1D"/>
<path d="M227.883 14.5714H225.107V16.4693H227.883V17.5014H225.107V19.8474H227.883V20.9136H223.917V13.5052H227.883V14.5714Z" fill="#211C1D"/>
<path d="M233.597 16.9966H235.088C235.505 16.9966 235.828 16.8841 236.065 16.6598C236.302 16.4347 236.413 16.1423 236.413 15.7835C236.413 15.4131 236.302 15.1214 236.065 14.8978C235.828 14.6727 235.505 14.5609 235.088 14.5609H233.597V16.9966ZM237.067 20.9131L234.954 18.0505H233.597V20.9131H232.406V13.5049H235.111C235.865 13.5049 236.47 13.7189 236.93 14.134C237.388 14.549 237.625 15.0996 237.625 15.7726C237.625 16.2548 237.502 16.681 237.256 17.053C237.008 17.4228 236.659 17.6917 236.211 17.8604L238.433 20.9131H237.067Z" fill="#211C1D"/>
<path d="M242.829 20.9136H241.641V13.5045H242.829V20.9136Z" fill="#211C1D"/>
<path d="M249.126 15.5818L247.892 18.657H250.348L249.126 15.5818ZM250.788 19.6779H247.455L246.926 20.9131H245.658L248.923 13.3813H249.328L252.593 20.9131H251.314L250.788 19.6779Z" fill="#211C1D"/>
<path d="M261.228 13.5051V21.0376H260.823L256.313 15.9071V20.914H255.122V13.3815H255.536L260.04 18.5008V13.5051H261.228Z" fill="#211C1D"/>
<path d="M206.099 31.4178H202.529V33.6292H205.468V34.7064H202.529V37.7598H201.338V30.3516H206.099V31.4178Z" fill="#211C1D"/>
<path d="M213.675 31.4178H210.965V33.3151H213.675V34.3476H210.965V36.6936H213.675V37.7598H209.775V30.3516H213.675V31.4178Z" fill="#211C1D"/>
<path d="M218.743 31.4287V36.6936H219.864C220.728 36.6936 221.414 36.4465 221.918 35.9525C222.423 35.4593 222.683 34.8191 222.683 34.0443C222.683 33.2479 222.437 32.6077 221.929 32.1361C221.425 31.6642 220.739 31.4287 219.876 31.4287H218.743ZM219.886 30.3509C221.112 30.3509 222.089 30.6886 222.817 31.3725C223.548 32.058 223.917 32.9453 223.917 34.0443C223.917 35.1333 223.548 36.0199 222.808 36.7163C222.063 37.4121 221.088 37.7598 219.876 37.7598H217.553V30.3509H219.876H219.886Z" fill="#211C1D"/>
<path d="M231.255 31.4178H228.497V33.3151H231.255V34.3476H228.497V36.6936H231.255V37.7598H227.307V30.3516H231.255V31.4178Z" fill="#211C1D"/>
<path d="M236.275 33.8431H237.766C238.183 33.8431 238.506 33.7306 238.74 33.5061C238.977 33.2812 239.089 32.9895 239.089 32.63C239.089 32.2593 238.977 31.9679 238.74 31.7441C238.506 31.5192 238.183 31.4074 237.766 31.4074H236.275V33.8431ZM239.742 37.7603L237.632 34.8977H236.275V37.7603H235.084V30.3512H237.787C238.542 30.3512 239.148 30.5654 239.606 30.9805C240.066 31.3955 240.302 31.9458 240.302 32.6191C240.302 33.1013 240.179 33.5282 239.931 33.8993C239.685 34.2693 239.337 34.5382 238.886 34.7069L241.111 37.7603H239.742Z" fill="#211C1D"/>
<path d="M246.133 32.4283L244.899 35.5035H247.356L246.133 32.4283ZM247.793 36.5244H244.459L243.934 37.7603H242.663L245.93 30.2278H246.336L249.6 37.7603H248.321L247.793 36.5244Z" fill="#211C1D"/>
<path d="M253.389 36.6936H256.777V37.7598H252.198V30.3516H253.389V36.6936Z" fill="#211C1D"/>
<path d="M207.311 51.6771C207.299 52.6418 207.028 53.4054 206.47 53.9666C205.907 54.5288 205.178 54.8086 204.289 54.8086C203.381 54.8086 202.652 54.5288 202.09 53.9666C201.528 53.4054 201.248 52.6418 201.248 51.6771V47.2652H202.439V51.7552C202.439 52.3845 202.616 52.8667 202.965 53.203C203.313 53.54 203.763 53.7087 204.314 53.7087C204.852 53.7087 205.29 53.54 205.638 53.203C205.987 52.8667 206.154 52.3845 206.154 51.7552V47.2652H207.344L207.311 51.6771Z" fill="#211C1D"/>
<path d="M217.553 47.332V54.8638H217.147L212.637 49.7342V54.7411H211.447V47.2086H211.86L216.363 52.3279V47.332H217.553Z" fill="#211C1D"/>
<path d="M222.931 54.7412H221.743V47.3321H222.931V54.7412Z" fill="#211C1D"/>
<path d="M233.206 47.2704L229.941 54.8022H229.533L226.269 47.2704H227.605L229.738 52.4221L231.872 47.2704H233.206Z" fill="#211C1D"/>
<path d="M240.425 48.399H237.634V50.2963H240.425V51.329H237.634V53.6748H240.425V54.7412H236.443V47.3328H240.425V48.399Z" fill="#211C1D"/>
<path d="M245.655 50.824H247.146C247.563 50.824 247.886 50.7115 248.123 50.4871C248.357 50.2621 248.471 49.9705 248.471 49.611C248.471 49.2403 248.357 48.9486 248.123 48.7251C247.886 48.4999 247.563 48.3881 247.146 48.3881H245.655V50.824ZM249.122 54.7412L247.012 51.8786H245.655V54.7412H244.464V47.3321H247.169C247.922 47.3321 248.528 47.5464 248.986 47.9614C249.445 48.3765 249.682 48.9268 249.682 49.5998C249.682 50.0822 249.559 50.5082 249.311 50.8803C249.065 51.25 248.717 51.5191 248.266 51.6878L250.49 54.7412H249.122Z" fill="#211C1D"/>
<path d="M255.665 47.1293C256.196 47.1293 256.665 47.252 257.082 47.499C257.496 47.7461 257.821 48.0609 258.056 48.4534L257.227 49.0937C256.833 48.4988 256.319 48.1955 255.677 48.1955C255.365 48.1955 255.094 48.2736 254.882 48.4316C254.668 48.588 254.557 48.8123 254.557 49.1046C254.557 49.3626 254.636 49.5534 254.791 49.6886C254.948 49.8229 255.217 49.9919 255.59 50.1599L256.417 50.5415C257.013 50.8117 257.462 51.1252 257.755 51.4506C258.047 51.7764 258.19 52.1799 258.19 52.6623C258.19 53.3025 257.956 53.8191 257.485 54.2116C257.013 54.6048 256.417 54.7954 255.7 54.7954C255.094 54.7954 254.545 54.6508 254.063 54.3694C253.58 54.088 253.2 53.6964 252.915 53.1898L253.757 52.5512C254.308 53.3367 254.957 53.7292 255.713 53.7292C256.093 53.7292 256.408 53.6402 256.642 53.4494C256.879 53.2572 257.002 53.0102 257.002 52.6967C257.002 52.4385 256.924 52.2361 256.754 52.0908C256.587 51.9437 256.307 51.7764 255.914 51.5975L255.094 51.2145C254.545 50.9565 254.117 50.6867 253.814 50.3616C253.512 50.0372 253.366 49.6324 253.366 49.1499C253.366 48.555 253.591 48.0728 254.04 47.7021C254.488 47.3303 255.039 47.1402 255.7 47.1402L255.665 47.1293Z" fill="#211C1D"/>
<path d="M262.787 54.7412H261.597V47.3321H262.787V54.7412Z" fill="#211C1D"/>
<path d="M270.447 48.399H268.832V54.7412H267.644V48.399H266.041V47.3328H270.447V48.399Z" fill="#211C1D"/>
<path d="M276.266 51.7443V54.7412H275.076V51.7552L272.517 47.3324H273.842L275.67 50.5544L277.51 47.3324H278.823L276.266 51.7443Z" fill="#211C1D"/>
<path d="M187.591 54.8643H186.389V13.335H187.591V54.8643Z" fill="#211C1D"/>
<path d="M80.8187 13.3746C81.5042 13.3746 82.121 13.531 82.6829 13.8334C83.2448 14.1382 83.6812 14.5519 84.0071 15.0795L83.1111 15.7425C82.5602 14.8896 81.8081 14.4634 80.8544 14.4634C80.0892 14.4634 79.4505 14.7206 78.9456 15.2381C78.4383 15.7534 78.181 16.4045 78.181 17.19C78.181 17.9764 78.4383 18.6269 78.9456 19.1435C79.4505 19.661 80.0892 19.9183 80.8544 19.9183C81.8081 19.9183 82.5602 19.4921 83.1111 18.6394L84.0071 19.3015C83.6929 19.829 83.2559 20.2441 82.6938 20.5474C82.1319 20.8499 81.5151 21.0063 80.8303 21.0063C79.7406 21.0063 78.8228 20.6366 78.0685 19.9073C77.3172 19.1779 76.9468 18.2674 76.9468 17.1791C76.9468 16.1013 77.3281 15.1928 78.0824 14.4524C78.8329 13.7107 79.7524 13.3402 80.8435 13.3402L80.8187 13.3746Z" fill="#211C1D"/>
<path d="M95.3765 13.3405V20.873H94.1866V15.7764L89.5716 20.9966H89.1572V13.4641H90.3478V18.549L94.9701 13.3405H95.3765Z" fill="#211C1D"/>
<path d="M102.722 17.5168V19.8166H103.648C104.064 19.8166 104.388 19.7173 104.613 19.514C104.838 19.313 104.95 19.0318 104.95 18.6832C104.95 18.3367 104.838 18.0553 104.613 17.8413C104.388 17.6293 104.076 17.5277 103.659 17.5277L102.722 17.5168ZM105.559 14.5306H102.734V16.5059H103.76C104.49 16.5059 105.074 16.7077 105.512 17.1127C105.948 17.5168 106.174 18.0443 106.174 18.6955C106.174 19.3344 105.962 19.8619 105.523 20.2667C105.084 20.6708 104.501 20.8726 103.771 20.8726H101.554V13.4644H105.572L105.559 14.5306Z" fill="#211C1D"/>
<path d="M117.808 13.335V20.8668H116.618V15.7707L112.004 20.9902H111.589V13.4584H112.779V18.5427L117.402 13.335H117.808Z" fill="#211C1D"/>
<path d="M124.425 14.4635V16.8992H125.278C125.695 16.8992 126.019 16.7874 126.243 16.5625C126.468 16.3373 126.581 16.0457 126.581 15.6759C126.581 15.3055 126.468 15.0131 126.243 14.7886C126.019 14.5651 125.695 14.4526 125.278 14.4526L124.425 14.4635ZM125.299 13.3973C126.054 13.3973 126.66 13.6106 127.12 14.0264C127.578 14.4417 127.815 14.992 127.815 15.665C127.815 16.3373 127.578 16.8876 127.12 17.3152C126.66 17.7412 126.054 17.9538 125.299 17.9538H124.425V20.8164H123.235V13.4082H125.299V13.3973Z" fill="#211C1D"/>
<path d="M135.806 13.3746C136.491 13.3746 137.109 13.531 137.671 13.8334C138.233 14.1382 138.669 14.5519 138.995 15.0795L138.099 15.7425C137.547 14.8896 136.796 14.4634 135.842 14.4634C135.077 14.4634 134.438 14.7206 133.933 15.2381C133.426 15.7534 133.169 16.4045 133.169 17.19C133.169 17.9764 133.426 18.6269 133.933 19.1435C134.438 19.661 135.077 19.9183 135.842 19.9183C136.796 19.9183 137.547 19.4921 138.099 18.6394L138.995 19.3015C138.68 19.829 138.244 20.2441 137.682 20.5474C137.12 20.8499 136.502 21.0063 135.817 21.0063C134.728 21.0063 133.81 20.6366 133.055 19.9073C132.304 19.1779 131.935 18.2674 131.935 17.1791C131.935 16.1013 132.316 15.1928 133.069 14.4524C133.821 13.7107 134.739 13.3402 135.83 13.3402L135.806 13.3746Z" fill="#211C1D"/>
<path d="M161.167 13.3405V20.873H159.976V15.7764L155.362 20.9966H154.947V13.4641H156.138V18.549L160.76 13.3405H161.167Z" fill="#211C1D"/>
<path d="M169.106 12.6223C168.577 12.6223 168.139 12.4543 167.804 12.1071C167.466 11.7585 167.296 11.32 167.296 10.7939H168.251C168.251 11.073 168.33 11.2982 168.487 11.4662C168.646 11.6351 168.856 11.7132 169.117 11.7132C169.375 11.7132 169.589 11.6351 169.745 11.4662C169.901 11.2982 169.981 11.073 169.981 10.7939H170.935C170.935 11.32 170.765 11.7585 170.431 12.1071C170.094 12.4543 169.654 12.6223 169.128 12.6223H169.106ZM172.339 13.3407V20.8734H171.149V15.7766L166.534 20.9961H166.12V13.4643H167.311V18.5492L171.933 13.3407H172.339Z" fill="#211C1D"/>
<path d="M81.6059 36.025C82.3133 36.025 82.8755 35.8453 83.2898 35.4865C83.7033 35.1268 83.9175 34.632 83.9175 33.9934C83.9175 33.3422 83.7172 32.8357 83.3001 32.4768C82.8864 32.1173 82.3236 31.9384 81.6169 31.9384V36.0359L81.6059 36.025ZM78.1259 34.0043C78.1259 34.6445 78.3399 35.1379 78.7543 35.4968C79.1709 35.8563 79.7305 36.0359 80.4373 36.0359V31.9384C79.7305 31.9384 79.1709 32.1173 78.7543 32.4768C78.3399 32.8357 78.1375 33.3422 78.1375 33.9934L78.1259 34.0043ZM85.1402 33.959C85.1402 34.9134 84.8171 35.6655 84.1639 36.226C83.5141 36.7872 82.6721 37.0679 81.6271 37.0789V38.0786H80.4373V37.0789C79.4061 37.0679 78.5651 36.7763 77.9123 36.2157C77.2627 35.6545 76.936 34.9018 76.936 33.959C76.936 33.0155 77.2627 32.2751 77.9123 31.7257C78.5651 31.1761 79.4061 30.8947 80.4484 30.8838V29.9512H81.6387V30.8838C82.6831 30.8947 83.525 31.1761 84.1755 31.7257C84.8273 32.2751 85.1534 33.0155 85.1534 33.959H85.1402Z" fill="#211C1D"/>
<path d="M116.089 31.2916V33.7273H116.854C117.27 33.7273 117.595 33.6156 117.819 33.3906C118.044 33.1654 118.156 32.8738 118.156 32.5033C118.156 32.1336 118.044 31.8413 117.819 31.6168C117.595 31.3932 117.27 31.2807 116.854 31.2807L116.089 31.2916ZM116.876 30.2254C117.63 30.2254 118.236 30.4388 118.696 30.8538C119.154 31.2698 119.39 31.8192 119.39 32.4931C119.39 33.1654 119.154 33.7157 118.696 34.1433C118.236 34.5693 117.63 34.7819 116.876 34.7819H116.089V37.6445H114.899V30.2364H116.876V30.2254Z" fill="#211C1D"/>
<path d="M124.115 32.3875L122.881 35.463H125.338L124.115 32.3875ZM125.776 36.4839H122.442L121.916 37.7197H120.646L123.912 30.1872H124.318L127.583 37.7197H126.303L125.776 36.4839Z" fill="#211C1D"/>
<path d="M139.748 34.2406V36.8H140.469C140.905 36.8 141.243 36.6766 141.478 36.4411C141.714 36.205 141.837 35.8915 141.837 35.5086C141.837 35.1279 141.714 34.8137 141.478 34.5776C141.243 34.3422 140.905 34.2188 140.469 34.2188L139.748 34.2406ZM139.748 33.1628H140.469C141.243 33.1628 141.87 33.3768 142.342 33.8147C142.813 34.2516 143.049 34.8137 143.049 35.4976C143.049 36.1941 142.813 36.7547 142.342 37.1816C141.87 37.6075 141.243 37.8218 140.469 37.8218H138.559V30.4134H139.748V33.1628Z" fill="#211C1D"/>
<path d="M162.538 37.7295H161.348V30.3206H162.538V37.7295ZM157.049 34.1376V36.6977H157.853C158.288 36.6977 158.626 36.574 158.862 36.3388C159.097 36.1027 159.221 35.7885 159.221 35.4063C159.221 35.0247 159.097 34.7112 158.862 34.4753C158.626 34.2392 158.288 34.1165 157.853 34.1165L157.049 34.1376ZM157.049 33.0603H157.853C158.626 33.0603 159.254 33.2738 159.725 33.7114C160.197 34.1486 160.433 34.7112 160.433 35.3953C160.433 36.0918 160.197 36.6523 159.725 37.0783C159.254 37.5052 158.626 37.7192 157.853 37.7192H155.858V30.3104H157.049V33.0603Z" fill="#211C1D"/>
<path d="M169.106 29.468C168.577 29.468 168.139 29.3 167.804 28.9528C167.466 28.6042 167.296 28.1657 167.296 27.6396H168.251C168.251 27.9187 168.33 28.1439 168.487 28.3126C168.646 28.4806 168.856 28.5596 169.117 28.5596C169.375 28.5596 169.589 28.4806 169.745 28.3126C169.901 28.1439 169.981 27.9187 169.981 27.6396H170.935C170.935 28.1657 170.765 28.6042 170.431 28.9528C170.094 29.3 169.654 29.468 169.128 29.468H169.106ZM172.339 30.1864V37.7189H171.149V32.623L166.534 37.8418H166.12V30.31H167.311V35.3949L171.933 30.1864H172.339Z" fill="#211C1D"/>
<path d="M83.6595 47.1567L81.0899 53.118C80.6404 54.1609 79.854 54.6885 78.7432 54.6885C78.4413 54.6885 78.1264 54.6557 77.7997 54.5767V53.5442C78.2498 53.5786 78.4853 53.6004 78.5071 53.6004C79.1933 53.6004 79.6646 53.3197 79.9226 52.7585L77.2954 47.1567H78.6635L80.5614 51.4343L82.3029 47.1567H83.6595Z" fill="#211C1D"/>
<path d="M93.4154 54.5654H92.2249V51.1753H88.4985V54.5654H87.3096V47.1566H88.4985V50.1098H92.2249V47.1566H93.4154V54.5654Z" fill="#211C1D"/>
<path d="M104.189 47.033V54.5655H102.999V49.469L98.3851 54.6885H97.9707V47.1567H99.1605V52.2416L103.784 47.033H104.189Z" fill="#211C1D"/>
<path d="M110.822 53.4488C111.239 53.4488 111.565 53.3473 111.787 53.1456C112.013 52.9432 112.124 52.6617 112.124 52.3154C112.124 51.9669 112.013 51.6855 111.787 51.4735C111.565 51.2593 111.25 51.1577 110.834 51.1577H109.845V53.4597H110.834L110.822 53.4488ZM109.845 48.1387V50.1368H110.241C110.612 50.1368 110.891 50.0476 111.094 49.8679C111.294 49.688 111.395 49.4417 111.395 49.1384C111.395 48.8358 111.294 48.5875 111.094 48.4076C110.891 48.2279 110.612 48.1387 110.241 48.1387H109.845ZM111.947 50.4628C112.382 50.6081 112.73 50.8442 112.977 51.1686C113.224 51.4953 113.348 51.8872 113.348 52.3482C113.348 52.9766 113.126 53.4928 112.687 53.8969C112.248 54.3017 111.664 54.5034 110.946 54.5034H108.688V47.0943H110.365C111.025 47.0943 111.565 47.2742 111.968 47.6455C112.371 48.0153 112.574 48.4873 112.574 49.0699C112.574 49.6427 112.36 50.1031 111.947 50.4503V50.4628Z" fill="#211C1D"/>
<path d="M126.745 48.0321V50.4681H127.538C127.955 50.4681 128.279 50.3563 128.503 50.1311C128.728 49.9059 128.841 49.6145 128.841 49.2445C128.841 48.8741 128.728 48.5818 128.503 48.3575C128.279 48.1337 127.955 48.0212 127.538 48.0212L126.745 48.0321ZM127.56 46.9659C128.314 46.9659 128.92 47.1793 129.381 47.5952C129.839 48.0103 130.075 48.5599 130.075 49.2336C130.075 49.9059 129.839 50.4562 129.381 50.8838C128.92 51.3107 128.314 51.5227 127.56 51.5227H126.745V54.3853H125.555V46.9769H127.56V46.9659Z" fill="#211C1D"/>
<path d="M136.459 46.9999C137.144 46.9999 137.762 47.1563 138.324 47.4589C138.885 47.7628 139.322 48.1772 139.648 48.7049L138.749 49.3677C138.201 48.5148 137.449 48.0882 136.495 48.0882C135.73 48.0882 135.091 48.3461 134.586 48.8627C134.082 49.3779 133.822 50.0298 133.822 50.8155C133.822 51.6019 134.082 52.2524 134.586 52.769C135.091 53.2856 135.73 53.5435 136.495 53.5435C137.449 53.5435 138.201 53.1169 138.749 52.2647L139.648 52.9268C139.333 53.4545 138.896 53.8696 138.334 54.1728C137.773 54.4754 137.156 54.6318 136.47 54.6318C135.381 54.6318 134.463 54.2621 133.708 53.5319C132.958 52.8034 132.587 51.8926 132.587 50.8046C132.587 49.7265 132.969 48.8174 133.72 48.0772C134.473 47.3355 135.393 46.9655 136.484 46.9655L136.459 46.9999Z" fill="#211C1D"/>
<path d="M149.224 47.033V54.5655H148.034V49.469L143.42 54.6885H143.005V47.1567H144.195V52.2416L148.818 47.033H149.224Z" fill="#211C1D"/>
<path d="M156.984 48.2232H155.37V54.5654H154.18V48.2232H152.581V47.157H156.984V48.2232Z" fill="#211C1D"/>
<path d="M172.339 48.2232H170.725V54.5654H169.536V48.2232H167.934V47.157H172.339V48.2232Z" fill="#211C1D"/>
<path d="M92.7473 36.5461H90.0835V34.201H92.7473V33.1683H90.0835V31.2704H92.7473V30.2041H88.8945V37.6123H92.7473V36.5461Z" fill="#211C1D"/>
<path d="M111.017 36.6521H108.146V34.3063H110.919V33.2742H108.146V31.377H111.017V30.3101H106.956V37.7183H111.017V36.6521Z" fill="#211C1D"/>
<path d="M121.164 53.4367H118.334V51.0907H121.107V50.0582H118.334V48.161H121.164V47.0948H117.145V54.5029H121.164V53.4367Z" fill="#211C1D"/>
<path d="M164.704 53.4985H161.938V51.1527H164.704V50.12H161.938V48.2228H164.704V47.1566H160.748V54.5649H164.704V53.4985Z" fill="#211C1D"/>
<path d="M150.163 20.8726H148.693L145.257 16.9321L148.367 13.4637H149.826L146.749 16.9321L150.163 20.8726ZM143.78 13.4637H144.969V20.8726H143.78V13.4637Z" fill="#211C1D"/>
<path d="M145.888 17.4453H144.186V16.4615H145.888V17.4453Z" fill="#211C1D"/>
<path d="M152.276 37.8218H151.087V34.4314H147.36V37.8218H146.17V30.4127H147.36V33.3659H151.087V30.4127H152.276V37.8218Z" fill="#211C1D"/>
<path d="M97.7881 36.5456H101.151V31.2603H99.1482C99.1261 33.7687 98.6767 35.5336 97.7881 36.5456ZM103.276 36.5456V39.1992H102.084V37.6141H97.0793V39.1992H95.8872V36.5456H96.461C96.9666 36.1071 97.3496 35.4781 97.6194 34.6573C97.8896 33.8358 98.0242 32.6995 98.0242 31.2603V30.2037H102.353V36.5575L103.276 36.5456Z" fill="#211C1D"/>
<path d="M135.134 30.3969V37.7693H133.948V31.4595H131.778C131.767 32.612 131.688 33.5965 131.542 34.4134C131.398 35.2298 131.185 35.8671 130.905 36.3377C130.626 36.8076 130.311 37.1539 129.965 37.3784C129.618 37.6013 129.204 37.7475 128.734 37.8037V36.6958C129.372 36.5613 129.842 36.0914 130.144 35.2854C130.447 34.4801 130.603 33.2492 130.603 31.5831V30.3744L135.134 30.3969Z" fill="#211C1D"/>
</svg>
