<svg width="203" height="68" viewBox="0 0 203 68" fill="none" xmlns="http://www.w3.org/2000/svg">
<path d="M0.823242 5.40541C0.823242 2.42008 3.23172 0 6.20274 0H197.444C200.415 0 202.823 2.42008 202.823 5.40541V62.5946C202.823 65.5799 200.415 68 197.444 68H6.20274C3.23173 68 0.823242 65.5799 0.823242 62.5946V5.40541Z" fill="#D1E2FF" fill-opacity="0.5"/>
<path fill-rule="evenodd" clip-rule="evenodd" d="M11.5822 7.40541C8.61122 7.40541 6.20274 9.82549 6.20274 12.8108V55.1892C6.20274 58.1745 8.61122 60.5946 11.5822 60.5946H53.7575C56.7285 60.5946 59.137 58.1745 59.137 55.1892V12.8108C59.137 9.82549 56.7285 7.40541 53.7575 7.40541H11.5822ZM44.108 29.5073H42.2472V23.1142L43.8137 19.262C44.0044 18.7931 43.7806 18.2576 43.3139 18.066C42.8472 17.8743 42.3145 18.0992 42.1237 18.5682C40.7331 21.9881 39.9089 24.0147 38.5273 27.4125C38.3365 27.8815 38.5602 28.417 39.0269 28.6085C39.4937 28.8002 40.0265 28.5751 40.2172 28.1064L40.4214 27.604V30.4246C40.4214 30.9311 40.8302 31.3418 41.3343 31.3418H44.1079C44.612 31.3418 45.0208 30.9311 45.0208 30.4246C45.021 29.918 44.6121 29.5073 44.108 29.5073ZM31.1014 21.2968C31.2848 21.2968 31.4704 21.3107 31.6572 21.3394C33.6504 21.6453 35.0194 23.5169 34.715 25.5197C34.6361 26.039 34.4523 26.5161 34.1886 26.9327C34.1701 26.9619 28.0196 26.9235 28.0196 26.9235C27.5662 26.2026 27.3587 25.3211 27.4969 24.4119C27.7727 22.5968 29.3286 21.2969 31.1014 21.2968ZM27.3177 28.2113L33.607 28.2232C34.5205 28.2232 35.2613 28.9672 35.2613 29.8851C35.2613 30.8031 34.5208 31.5472 33.6073 31.5472H26.9218C26.4458 31.5472 25.9929 31.3412 25.6789 30.9818L23.5486 28.5443L24.9853 31.5698C25.2749 32.1798 25.8606 32.594 26.5299 32.661C26.7991 32.688 27.0128 32.7094 27.0128 32.7094L25.9465 34.9183L27.5604 35.2964V39.3923L26.1833 39.0697C26.3328 39.2901 26.4203 39.5563 26.4203 39.8431C26.4203 40.603 25.8072 41.219 25.051 41.219H21.0219V45.9845L25.2497 48.3109C25.6919 48.5542 25.8541 49.1116 25.6119 49.5559C25.3699 50 24.8151 50.1633 24.3728 49.9199L20.109 47.5737L15.8451 49.9199C15.4027 50.1632 14.8482 50.0001 14.6061 49.5559C14.3639 49.1116 14.5261 48.5541 14.9683 48.3109L19.196 45.9845V41.219H15.4662C14.8118 41.219 14.2489 40.7537 14.1226 40.1085L11.5448 26.9311C11.399 26.1855 11.8823 25.4623 12.6243 25.3158C13.3663 25.1695 14.086 25.6548 14.2318 26.4004L16.5924 38.4674H20.9215C19.9169 38.0785 19.1051 37.3055 18.6671 36.3151C18.2194 35.3028 18.2 34.1512 18.6134 33.1242L20.8613 27.5398C21.3818 26.2468 22.41 25.2265 23.7034 24.7199C24.4951 24.4098 25.3429 24.3099 26.1693 24.4154C26.0349 25.6282 26.5069 27.2631 27.3177 28.2113ZM28.1691 32.5533H52.6187C53.3075 32.5533 53.8661 33.1145 53.8662 33.8069C53.8662 34.4992 53.3078 35.0604 52.6187 35.0604H52.0927V48.7007C52.0927 49.4597 51.4803 50.075 50.7249 50.075H50.7194C49.964 50.075 49.3516 49.4597 49.3516 48.7007V35.0604H31.5168V48.7006C31.5168 49.4596 30.9045 50.0749 30.1491 50.0749H30.1435C29.3881 50.0749 28.7758 49.4596 28.7758 48.7006V35.0603H28.1691C27.4862 35.0603 26.9216 34.5029 26.9216 33.8068C26.9216 33.1098 27.4869 32.5533 28.1691 32.5533Z" fill="url(#paint0_linear_372_112)"/>
<path fill-rule="evenodd" clip-rule="evenodd" d="M11.5822 7.40541C8.61122 7.40541 6.20274 9.82549 6.20274 12.8108V55.1892C6.20274 58.1745 8.61122 60.5946 11.5822 60.5946H53.7575C56.7285 60.5946 59.137 58.1745 59.137 55.1892V12.8108C59.137 9.82549 56.7285 7.40541 53.7575 7.40541H11.5822ZM44.108 29.5073H42.2472V23.1142L43.8137 19.262C44.0044 18.7931 43.7806 18.2576 43.3139 18.066C42.8472 17.8743 42.3145 18.0992 42.1237 18.5682C40.7331 21.9881 39.9089 24.0147 38.5273 27.4125C38.3365 27.8815 38.5602 28.417 39.0269 28.6085C39.4937 28.8002 40.0265 28.5751 40.2172 28.1064L40.4214 27.604V30.4246C40.4214 30.9311 40.8302 31.3418 41.3343 31.3418H44.1079C44.612 31.3418 45.0208 30.9311 45.0208 30.4246C45.021 29.918 44.6121 29.5073 44.108 29.5073ZM31.1014 21.2968C31.2848 21.2968 31.4704 21.3107 31.6572 21.3394C33.6504 21.6453 35.0194 23.5169 34.715 25.5197C34.6361 26.039 34.4523 26.5161 34.1886 26.9327C34.1701 26.9619 28.0196 26.9235 28.0196 26.9235C27.5662 26.2026 27.3587 25.3211 27.4969 24.4119C27.7727 22.5968 29.3286 21.2969 31.1014 21.2968ZM27.3177 28.2113L33.607 28.2232C34.5205 28.2232 35.2613 28.9672 35.2613 29.8851C35.2613 30.8031 34.5208 31.5472 33.6073 31.5472H26.9218C26.4458 31.5472 25.9929 31.3412 25.6789 30.9818L23.5486 28.5443L24.9853 31.5698C25.2749 32.1798 25.8606 32.594 26.5299 32.661C26.7991 32.688 27.0128 32.7094 27.0128 32.7094L25.9465 34.9183L27.5604 35.2964V39.3923L26.1833 39.0697C26.3328 39.2901 26.4203 39.5563 26.4203 39.8431C26.4203 40.603 25.8072 41.219 25.051 41.219H21.0219V45.9845L25.2497 48.3109C25.6919 48.5542 25.8541 49.1116 25.6119 49.5559C25.3699 50 24.8151 50.1633 24.3728 49.9199L20.109 47.5737L15.8451 49.9199C15.4027 50.1632 14.8482 50.0001 14.6061 49.5559C14.3639 49.1116 14.5261 48.5541 14.9683 48.3109L19.196 45.9845V41.219H15.4662C14.8118 41.219 14.2489 40.7537 14.1226 40.1085L11.5448 26.9311C11.399 26.1855 11.8823 25.4623 12.6243 25.3158C13.3663 25.1695 14.086 25.6548 14.2318 26.4004L16.5924 38.4674H20.9215C19.9169 38.0785 19.1051 37.3055 18.6671 36.3151C18.2194 35.3028 18.2 34.1512 18.6134 33.1242L20.8613 27.5398C21.3818 26.2468 22.41 25.2265 23.7034 24.7199C24.4951 24.4098 25.3429 24.3099 26.1693 24.4154C26.0349 25.6282 26.5069 27.2631 27.3177 28.2113ZM28.1691 32.5533H52.6187C53.3075 32.5533 53.8661 33.1145 53.8662 33.8069C53.8662 34.4992 53.3078 35.0604 52.6187 35.0604H52.0927V48.7007C52.0927 49.4597 51.4803 50.075 50.7249 50.075H50.7194C49.964 50.075 49.3516 49.4597 49.3516 48.7007V35.0604H31.5168V48.7006C31.5168 49.4596 30.9045 50.0749 30.1491 50.0749H30.1435C29.3881 50.0749 28.7758 49.4596 28.7758 48.7006V35.0603H28.1691C27.4862 35.0603 26.9216 34.5029 26.9216 33.8068C26.9216 33.1098 27.4869 32.5533 28.1691 32.5533Z" fill="#1D346A"/>
<path d="M74.7079 28.3243V21.0757H68.4381V28.3243H65.0732V12.173H68.4381V18.2541H74.7079V12.173H78.097V28.3243H74.7079Z" fill="#FF6600"/>
<path d="M80.4915 28.3243V12.173H92.3048V14.9946H83.7595V18.4486H91.627V21.2946H83.7595V25.4541H92.6922V28.3243H80.4915Z" fill="#FF6600"/>
<path d="M109.164 25.9892C109.761 25.9892 110.326 25.8838 110.859 25.673C111.391 25.4459 111.851 25.1135 112.238 24.6757C112.642 24.2216 112.957 23.6459 113.182 22.9486C113.408 22.2514 113.521 21.4243 113.521 20.4676C113.521 18.5541 113.15 17.1027 112.408 16.1135C111.665 15.1243 110.584 14.6297 109.164 14.6297C107.744 14.6297 106.654 15.1243 105.896 16.1135C105.137 17.1027 104.758 18.5541 104.758 20.4676C104.758 22.3811 105.137 23.7838 105.896 24.6757C106.671 25.5514 107.76 25.9892 109.164 25.9892ZM109.164 28.8838C106.679 28.8838 104.766 28.1541 103.427 26.6946C102.103 25.2351 101.442 23.1351 101.442 20.3946C101.442 19.0324 101.611 17.8081 101.95 16.7216C102.289 15.6351 102.789 14.7189 103.451 13.973C104.113 13.2108 104.92 12.6351 105.872 12.2459C106.824 11.8405 107.921 11.6378 109.164 11.6378C110.391 11.6378 111.48 11.8405 112.432 12.2459C113.4 12.6351 114.207 13.2108 114.853 13.973C115.498 14.7351 115.991 15.6676 116.329 16.7703C116.668 17.8568 116.838 19.0892 116.838 20.4676C116.838 23.2568 116.176 25.3568 114.853 26.7676C113.546 28.1784 111.649 28.8838 109.164 28.8838Z" fill="#1D346A"/>
<path d="M128.147 28.3243V21.9027C127.582 22.1459 126.921 22.3405 126.162 22.4865C125.42 22.6162 124.637 22.6811 123.814 22.6811C123.056 22.6811 122.362 22.6081 121.732 22.4622C121.119 22.3 120.594 22.0243 120.159 21.6351C119.723 21.2459 119.384 20.7189 119.142 20.0541C118.9 19.373 118.779 18.5054 118.779 17.4514V12.173H122.095V17.3784C122.095 18.4 122.337 19.0811 122.822 19.4216C123.322 19.7622 124.016 19.9324 124.903 19.9324C125.484 19.9324 126.057 19.8838 126.622 19.7865C127.203 19.673 127.711 19.5027 128.147 19.2757V12.173H131.415V28.3243H128.147Z" fill="#1D346A"/>
<path d="M133.819 28.3243V12.173H145.633V14.9946H137.087V18.4486H144.955V21.2946H137.087V25.4541H146.02V28.3243H133.819Z" fill="#1D346A"/>
<path d="M157.548 28.3243V21.0757H151.279V28.3243H147.914V12.173H151.279V18.2541H157.548V12.173H160.938V28.3243H157.548Z" fill="#1D346A"/>
<path d="M166.673 20.7595V25.6H170.183C170.957 25.6 171.571 25.3811 172.023 24.9432C172.491 24.4892 172.725 23.8973 172.725 23.1676C172.725 22.4541 172.499 21.8784 172.047 21.4405C171.611 20.9865 170.99 20.7595 170.183 20.7595H166.673ZM170.401 18.1324C172.015 18.1324 173.281 18.5703 174.201 19.4459C175.137 20.3216 175.605 21.5784 175.605 23.2162C175.605 24.8541 175.137 26.1189 174.201 27.0108C173.281 27.8865 172.015 28.3243 170.401 28.3243H163.405V12.173H166.673V18.1324H170.401Z" fill="#1D346A"/>
<path d="M65.1459 57.5135V41.3622H68.3413V51.8946L74.6353 41.3622H78.1454V57.5135H74.9742V46.5189L68.2929 57.5135H65.1459Z" fill="#1D346A"/>
<path d="M90.1261 57.5135V50.2649H83.8563V57.5135H80.4915V41.3622H83.8563V47.4432H90.1261V41.3622H93.5152V57.5135H90.1261Z" fill="#1D346A"/>
<path d="M100.291 57.5135V44.1838H95.4498V41.3622H108.522V44.1838H103.656V57.5135H100.291Z" fill="#1D346A"/>
<path d="M110.524 57.5135V41.3622H122.338V44.1838H113.792V47.6378H121.66V50.4838H113.792V54.6432H122.725V57.5135H110.524Z" fill="#1D346A"/>
<path d="M131.179 48.9027C132.147 48.9027 132.841 48.6838 133.261 48.2459C133.696 47.7919 133.914 47.2081 133.914 46.4946C133.914 45.8135 133.696 45.2541 133.261 44.8162C132.841 44.3784 132.147 44.1595 131.179 44.1595H127.983V48.9027H131.179ZM124.619 57.5135V41.3622H131.711C132.502 41.3622 133.212 41.5 133.842 41.7757C134.471 42.0351 135.012 42.4081 135.464 42.8946C135.915 43.3649 136.262 43.9162 136.505 44.5486C136.747 45.1811 136.868 45.8622 136.868 46.5919C136.868 47.3216 136.747 48.0027 136.505 48.6351C136.262 49.2514 135.915 49.7865 135.464 50.2405C135.012 50.6784 134.471 51.027 133.842 51.2865C133.212 51.5297 132.502 51.6513 131.711 51.6513H127.983V57.5135H124.619Z" fill="#1D346A"/>
<path d="M138.76 57.5135V41.3622H150.574V44.1838H142.028V47.6378H149.896V50.4838H142.028V54.6432H150.961V57.5135H138.76Z" fill="#1D346A"/>
<path d="M167.016 51.9676C166.839 52.8919 166.556 53.727 166.169 54.473C165.782 55.2189 165.289 55.8595 164.692 56.3946C164.111 56.9297 163.433 57.3432 162.659 57.6351C161.884 57.927 161.029 58.073 160.093 58.073C159.044 58.073 158.059 57.8946 157.139 57.5378C156.236 57.1811 155.453 56.6459 154.791 55.9324C154.13 55.2189 153.605 54.3432 153.218 53.3054C152.847 52.2514 152.661 51.027 152.661 49.6324C152.661 48.2703 152.83 47.0459 153.169 45.9595C153.524 44.8568 154.025 43.9324 154.67 43.1865C155.316 42.4243 156.098 41.8405 157.018 41.4351C157.954 41.0297 158.995 40.827 160.141 40.827C161.142 40.827 162.045 40.9811 162.852 41.2892C163.675 41.5811 164.377 41.9946 164.958 42.5297C165.556 43.0486 166.024 43.6649 166.363 44.3784C166.718 45.0919 166.935 45.8541 167.016 46.6649H163.651C163.425 45.7405 162.99 45.027 162.344 44.5243C161.698 44.0054 160.972 43.7459 160.165 43.7459C158.761 43.7459 157.728 44.2568 157.067 45.2784C156.405 46.2838 156.074 47.6703 156.074 49.4378C156.074 51.2378 156.397 52.6405 157.043 53.6459C157.704 54.6351 158.689 55.1297 159.996 55.1297C160.996 55.1297 161.795 54.8622 162.392 54.327C163.006 53.7757 163.425 52.9892 163.651 51.9676H167.016Z" fill="#1D346A"/>
<path d="M178.546 57.5135V50.2649H172.276V57.5135H168.911V41.3622H172.276V47.4432H178.546V41.3622H181.935V57.5135H178.546Z" fill="#1D346A"/>
<path d="M191.858 55.1784C192.455 55.1784 193.02 55.073 193.553 54.8622C194.085 54.6351 194.545 54.3027 194.932 53.8649C195.336 53.4108 195.651 52.8351 195.876 52.1378C196.102 51.4405 196.215 50.6135 196.215 49.6568C196.215 47.7432 195.844 46.2919 195.102 45.3027C194.359 44.3135 193.278 43.8189 191.858 43.8189C190.438 43.8189 189.348 44.3135 188.59 45.3027C187.831 46.2919 187.452 47.7432 187.452 49.6568C187.452 51.5703 187.831 52.973 188.59 53.8649C189.365 54.7405 190.454 55.1784 191.858 55.1784ZM191.858 58.073C189.373 58.073 187.46 57.3432 186.121 55.8838C184.797 54.4243 184.136 52.3243 184.136 49.5838C184.136 48.2216 184.305 46.9973 184.644 45.9108C184.983 44.8243 185.483 43.9081 186.145 43.1622C186.807 42.4 187.614 41.8243 188.566 41.4351C189.518 41.0297 190.615 40.827 191.858 40.827C193.084 40.827 194.174 41.0297 195.126 41.4351C196.094 41.8243 196.901 42.4 197.547 43.1622C198.192 43.9243 198.685 44.8568 199.023 45.9595C199.362 47.0459 199.532 48.2784 199.532 49.6568C199.532 52.4459 198.87 54.5459 197.547 55.9568C196.24 57.3676 194.343 58.073 191.858 58.073Z" fill="#1D346A"/>
<defs>
<linearGradient id="paint0_linear_372_112" x1="68.1566" y1="29.7154" x2="81.7973" y2="86.7595" gradientUnits="userSpaceOnUse">
<stop stop-color="#FF6600"/>
<stop offset="1" stop-color="#1D346A"/>
</linearGradient>
</defs>
</svg>
